<svg version="1.1"
      xmlns="http://www.w3.org/2000/svg"
      xmlns:xlink="http://www.w3.org/1999/xlink"  id="snapshot-38911" width="800" height="694" viewBox="0 0 800 694"><desc>This image was made on Patterninja.com</desc><defs>
<!-- image 40199 -->
<g id="transformed-40199" data-image="40199" transform="translate(-166.40206059676063, 341.0379394032394) rotate(344, 170.30206059676064, 170.30206059676058)"><g><svg version="1.1" width="340.6041211935213px" height="340.60412119352117px" viewBox="0 0 340.6041211935213 340.60412119352117"><g id="original-40199"><svg xmlns="http://www.w3.org/2000/svg" viewBox="0 0 400 400" xmlns:xlink="http://www.w3.org/1999/xlink" version="1.1" preserveAspectRatio="xMidYMid meet">
  <path d="M306.8 233.2c-.7-2.7-3.4-4.3-6.1-3.6L271 237l-12.8-7.7.5-23.4 13.8-.3c2.8-.1 4.9-2.4 4.9-5.1-.1-2.8-2.4-4.9-5.1-4.9l-13.4.3.5-22.8 9.6-5.1 29.5 9.7c.5.2 1 .2 1.6.2 2.1 0 4.1-1.3 4.8-3.4.9-2.6-.6-5.4-3.2-6.3l-20.5-6.7 20.7-11.1c2.4-1.3 3.3-4.3 2-6.8-1.3-2.4-4.3-3.3-6.8-2L277.5 152l6.5-19.4c.9-2.6-.5-5.5-3.2-6.3-2.6-.9-5.5.5-6.3 3.2l-9.8 29.4-9.8 5.2-18.9-11.5 8.2-13.5c1.4-2.4.7-5.4-1.7-6.9-2.4-1.4-5.4-.7-6.9 1.7l-8.2 13.5-20.9-12.6.3-14.3 22.4-22.4c2-2 2-5.1 0-7.1s-5.1-2-7.1 0l-15 15 .5-21.8c.1-2.8-2.1-5-4.9-5.1-2.7-.1-5 2.1-5.1 4.9l-.5 21.6-14.6-14.8c-1.9-2-5.1-2-7.1 0-2 1.9-2 5.1 0 7.1l21.4 21.7-.3 14.8-22.3 12.3-7.4-12.4c-1.4-2.4-4.5-3.2-6.8-1.8-2.4 1.4-3.2 4.5-1.8 6.8l7.2 12.2-19.4 10.7-12.8-7.6-7.7-29.9c-.7-2.7-3.4-4.3-6.1-3.6-2.7.7-4.3 3.4-3.6 6.1l5.2 20.1-19-11.4c-2.4-1.4-5.4-.6-6.9 1.7-1.4 2.4-.6 5.4 1.7 6.9l19.1 11.5-20.5 5.2c-2.7.7-4.3 3.4-3.6 6.1.6 2.3 2.6 3.8 4.8 3.8.4 0 .8 0 1.2-.2l30.2-7.6 13.5 8.1-.5 22.4-11.9.3c-2.8.1-4.9 2.4-4.9 5.1.1 2.7 2.3 4.9 5 4.9h.1l11.4-.3-.5 21.8-12.6 6.7-29.6-8.1c-2.7-.7-5.4.9-6.1 3.5-.7 2.7.9 5.4 3.5 6.1l19.7 5.3-20.7 11.1c-2.4 1.3-3.3 4.3-2 6.8.9 1.7 2.6 2.6 4.4 2.6.8 0 1.6-.2 2.4-.6l21.8-11.7-5.7 20.8c-.7 2.7.8 5.4 3.5 6.1.4.1.9.2 1.3.2 2.2 0 4.2-1.5 4.8-3.7l8.3-30 11.2-6 19.1 11.6-7.1 10.2c-1.6 2.3-1 5.4 1.3 7 .9.6 1.9.9 2.8.9 1.6 0 3.1-.7 4.1-2.1l7.4-10.7 21.7 13.1-.4 16.3-22.4 22.4c-2 2-2 5.1 0 7.1 1 1 2.3 1.5 3.5 1.5 1.3 0 2.6-.5 3.5-1.5l15-15-.4 18.6c-.1 2.8 2.1 5 4.9 5.1h.1c2.7 0 4.9-2.2 5-4.9l.5-18.3 14.6 14.8c1 1 2.3 1.5 3.6 1.5 1.3 0 2.5-.5 3.5-1.4 2-1.9 2-5.1 0-7.1l-21.4-21.6.4-17.3 19.6-10.8 5.4 9.4c.9 1.6 2.6 2.5 4.3 2.5.8 0 1.7-.2 2.5-.7 2.4-1.4 3.2-4.4 1.9-6.8l-5.3-9.3 20.8-11.4 12.4 7.4 7.8 30.4c.6 2.3 2.6 3.8 4.8 3.8.4 0 .8-.1 1.2-.2 2.7-.7 4.3-3.4 3.6-6.1l-5.3-20.6 16.8 10c.8.5 1.7.7 2.6.7 1.7 0 3.4-.9 4.3-2.4 1.4-2.4.6-5.4-1.7-6.9l-16.3-9.7 20-5.1c2.8-.5 4.4-3.2 3.7-5.9zm-58.5-9.7L209.2 200l40.1-21.5-1 45zm-21.8-64.8l18.2 11-39.4 21.1 1-44.4 20.2 12.3zM196.3 146l-1 45.7-39.4-23.5 40.4-22.2zm-44.8 31.2l37.4 22.4-38.3 20.5.9-42.9zm3 52.2l40.4-21.7-1 45.5-39.4-23.8zm49.4 23.9l1-44.2 38 22.8-39 21.4z" fill="rgba(221, 221, 221, 0.5)" stroke="none"/>
</svg>
</g></svg></g></g>
<!-- /image 40199 -->

<!-- image 30882 -->
<g id="transformed-30882" data-image="30882" transform="translate(164.37746344605267, -69.66652465314213) rotate(23, 98.1925365539473, 93.08652465314213)"><g><svg version="1.1" width="196.3850731078946px" height="186.17304930628427px" viewBox="0 0 196.3850731078946 186.17304930628427"><g id="original-30882"><svg xmlns="http://www.w3.org/2000/svg" viewBox="0 0 78 74" xmlns:xlink="http://www.w3.org/1999/xlink" version="1.1" preserveAspectRatio="xMidYMid meet">
  <path fill-rule="evenodd" d="M39 74l39-56H0z" fill="rgba(255, 200, 219, 0.5)" stroke="none"/>
  <path fill-rule="evenodd" d="M65.464 0L78 18H0L12.536 0z" fill="rgba(255, 200, 219, 0.5)" stroke="none"/>
  <path fill-rule="evenodd" d="M13 0l13 18H0z" fill="rgba(216, 117, 152, 0.1)" stroke="none"/>
  <path fill-rule="evenodd" d="M26 18L39 0H13z" fill="rgba(242, 160, 189, 0.5)" stroke="none"/>
  <path fill-rule="evenodd" d="M52 18L65 0H39z" fill="rgba(242, 160, 189, 0.5)" stroke="none"/>
  <path fill-rule="evenodd" d="M65 0l13 18H52z" fill="rgba(216, 117, 152, 0.1)" stroke="none"/>
  <path fill-rule="evenodd" d="M39 74l13-56H26z" fill="rgba(216, 117, 152, 0.5)" stroke="none"/>
  <path fill-rule="evenodd" d="M39 74l39-56H52z" fill="rgba(193, 81, 121, 0.5)" stroke="none"/>
</svg>
</g></svg></g></g>
<!-- /image 30882 -->

<!-- image 45096 -->
<g id="transformed-45096" data-image="45096" transform="translate(567.1947965604459, 183.954796560446) rotate(29, 97.35520343955407, 97.355203439554)"><g><svg version="1.1" width="194.71040687910815px" height="194.710406879108px" viewBox="0 0 194.71040687910815 194.710406879108"><g id="original-45096"><svg xmlns="http://www.w3.org/2000/svg" viewBox="0 0 400 400" xmlns:xlink="http://www.w3.org/1999/xlink" version="1.1" preserveAspectRatio="xMidYMid meet">
  <path d="M313.5 159.3c-.9-2.6-3.8-4-6.4-3.1l-20.4 7.1 8.7-18.9c1.2-2.5.1-5.5-2.4-6.6-2.5-1.2-5.5-.1-6.6 2.4l-12.8 27.7-19.6 6.8 9-19.4c1.2-2.5.1-5.5-2.4-6.6-2.5-1.2-5.5-.1-6.6 2.4l-11.2 24.2-29.4-23.4 20.8-16.8c2.1-1.7 2.5-4.9.8-7-1.7-2.1-4.9-2.5-7-.8l-16.2 13 2.1-19.1 24.1-19.4c2.1-1.7 2.5-4.9.8-7-1.7-2.1-4.9-2.5-7-.8l-16.2 13.1 2.5-22c.3-2.7-1.7-5.2-4.4-5.5-2.8-.3-5.2 1.7-5.5 4.4l-2.5 22.2-13.2-16.6c-1.7-2.2-4.9-2.5-7-.8-2.2 1.7-2.5 4.9-.8 7l19.5 24.4-2.2 19.2-13.2-16.6c-1.7-2.2-4.9-2.5-7-.8-2.2 1.7-2.5 4.9-.8 7l17.6 22-30.7 12-3.8-26.8c-.4-2.7-2.9-4.6-5.7-4.2-2.7.4-4.6 2.9-4.2 5.7l2.9 20.2-14-10.9-4.4-30.7c-.4-2.7-2.9-4.6-5.7-4.2-2.7.4-4.6 2.9-4.2 5.7l2.9 20.2-18.4-14.7c-2.2-1.7-5.3-1.4-7 .8-1.7 2.2-1.4 5.3.8 7l19.3 15.4-21.4 2.9c-2.7.4-4.6 2.9-4.3 5.6.3 2.5 2.5 4.3 4.9 4.3h.7l30.8-4.2 14.3 11.4-21.4 2.9c-2.7.4-4.6 2.9-4.3 5.6.3 2.5 2.5 4.3 4.9 4.3h.7l26.1-3.6-4.8 31.8-26.3-12c-2.5-1.1-5.5 0-6.6 2.5-1.1 2.5 0 5.5 2.5 6.6l20 9.1-21.3 7.4L92.1 208c-2.5-1.1-5.5 0-6.6 2.5-1.1 2.5 0 5.5 2.5 6.6l19.3 8.8-17.6 6.1c-2.6.9-4 3.8-3.1 6.4.7 2.1 2.7 3.4 4.7 3.4.5 0 1.1-.1 1.6-.3l17.3-6-8.7 18.9c-1.2 2.5-.1 5.5 2.4 6.6.7.3 1.4.5 2.1.5 1.9 0 3.7-1.1 4.5-2.9l12.8-27.7 20.8-7.3-8.4 18.2c-1.2 2.5-.1 5.5 2.4 6.6.7.3 1.4.5 2.1.5 1.9 0 3.7-1.1 4.5-2.9l11-23.9 32.1 25.6-22.3 18c-2.1 1.7-2.5 4.9-.8 7 1 1.2 2.4 1.9 3.9 1.9 1.1 0 2.2-.4 3.1-1.1l16-12.9-2.1 18.4-24.5 19.7c-2.1 1.7-2.5 4.9-.8 7 1 1.2 2.4 1.9 3.9 1.9 1.1 0 2.2-.4 3.1-1.1l16.6-13.4-2.2 19.4c-.3 2.7 1.7 5.2 4.4 5.5h.6c2.5 0 4.7-1.9 5-4.4l2.1-18.9 12.9 16.2c1 1.2 2.4 1.9 3.9 1.9 1.1 0 2.2-.4 3.1-1.1 2.2-1.7 2.5-4.9.8-7l-19.1-24 2.2-19.6 13.4 16.8c1 1.2 2.4 1.9 3.9 1.9 1.1 0 2.2-.4 3.1-1.1 2.2-1.7 2.5-4.9.8-7l-19.2-24 32.2-12.6 2.3 26.5c.2 2.6 2.4 4.6 5 4.6h.4c2.8-.2 4.8-2.7 4.5-5.4l-1.9-21.5 15 11.9 2.7 31c.2 2.6 2.4 4.6 5 4.6h.4c2.8-.2 4.8-2.7 4.5-5.4l-1.9-21.5 18.4 14.7c.9.7 2 1.1 3.1 1.1 1.5 0 2.9-.6 3.9-1.9 1.7-2.2 1.4-5.3-.8-7L275 252.9l20.3-1.7c2.8-.2 4.8-2.6 4.6-5.4-.2-2.8-2.6-4.8-5.4-4.6l-30.9 2.6-13.6-11.5 20.3-1.7c2.8-.2 4.8-2.6 4.6-5.4-.2-2.8-2.6-4.8-5.4-4.6l-27.3 2.3 4.9-32.8 25.4 11.5c.7.3 1.4.5 2.1.5 1.9 0 3.7-1.1 4.6-2.9 1.1-2.5 0-5.5-2.5-6.6l-18.8-8.5 18.3-6.4 28.8 13.1c.7.3 1.4.5 2.1.5 1.9 0 3.7-1.1 4.6-2.9 1.1-2.5 0-5.5-2.5-6.6l-19.3-8.8 20.6-7.2c2.5-1 3.9-3.9 3-6.5zm-104.1 2.2l25.2 20.1-28.5 10 3.3-30.1zm-13.2 27.9l-22.4-17.9 25.5-10-3.1 27.9zm-6.2 7.8l-26.9 9.4 4.2-27.5 22.7 18.1zm4.3 9l-3.5 30.9-25.8-20.6 29.3-10.3zm9.8 2.3l22.7 18.1-25.9 10.2 3.2-28.3zm6.3-7.9l26.5-9.3-4.1 27.1-22.4-17.8z" fill="rgba(221, 221, 221, 0.25)" stroke="none"/>
</svg>
</g></svg></g></g>
<!-- /image 45096 -->

<!-- image 60278 -->
<g id="transformed-60278" data-image="60278" transform="translate(379.6993490252445, 309.1393490252446) rotate(308, 135.48065097475543, 135.4806509747554)"><g><svg version="1.1" width="270.96130194951087px" height="270.9613019495108px" viewBox="0 0 270.96130194951087 270.9613019495108"><g id="original-60278"><svg xmlns="http://www.w3.org/2000/svg" viewBox="0 0 400 400" xmlns:xlink="http://www.w3.org/1999/xlink" version="1.1" preserveAspectRatio="xMidYMid meet">
  <path d="M306.3 238.8l-17.2-7.2 18-7.4c2.6-1 3.8-4 2.7-6.5-1-2.6-4-3.8-6.5-2.7L276 226.1l-40.3-16.9 18.8-10.4c1.7-1 2.7-2.8 2.6-4.8-.2-2-1.5-3.7-3.4-4.3L231 182l33.7-23.6 30.5 6.1c.3.1.7.1 1 .1 2.3 0 4.4-1.6 4.9-4 .5-2.7-1.2-5.3-3.9-5.9l-21.1-4.2 19.3-13.5c2.3-1.6 2.8-4.7 1.2-7-1.6-2.3-4.7-2.8-7-1.2l-18.3 12.8 4.1-20c.6-2.7-1.2-5.3-3.9-5.9-2.7-.6-5.3 1.2-5.9 3.9l-6.2 30.4-33.6 23.6.5-23.1c0-2-1.1-3.8-2.9-4.6-1.8-.8-3.9-.5-5.4.8l-16.6 14.5-2.1-41.1L219.9 96c1.8-2.1 1.6-5.2-.5-7.1-2.1-1.8-5.2-1.6-7.1.5l-13.9 16-1.1-21.8c-.1-2.8-2.5-4.9-5.2-4.7-2.8.1-4.9 2.5-4.7 5.2l1.1 21.5-15.7-13.7c-2.1-1.8-5.2-1.6-7.1.5-1.8 2.1-1.6 5.2.5 7.1l23 20 2.2 44-21.4-12.9c-1.7-1-3.8-.9-5.5.2-1.6 1.1-2.4 3.1-2 5.1l4.9 24.5-39.8-16.7-11.9-28.5c-1.1-2.5-4-3.8-6.5-2.7-2.6 1.1-3.8 4-2.7 6.5l8 19.2-20.4-8.6c-2.5-1.1-5.5.1-6.5 2.7-1.1 2.5.1 5.5 2.7 6.5l20.6 8.6-19.6 8c-2.6 1-3.8 4-2.7 6.5.8 1.9 2.7 3.1 4.6 3.1.6 0 1.3-.1 1.9-.4l28.9-11.8 37.8 15.9-19.3 10.6c-1.7 1-2.7 2.8-2.6 4.8.2 2 1.5 3.7 3.4 4.3l21.9 7.4-32.8 23.2-30.7-4.5c-2.7-.4-5.3 1.5-5.7 4.2-.4 2.7 1.5 5.3 4.2 5.7l20.2 2.9-19.2 13.5c-2.3 1.6-2.8 4.7-1.2 7 1 1.4 2.5 2.1 4.1 2.1 1 0 2-.3 2.9-.9l20.3-14.2-3.2 21.3c-.4 2.7 1.5 5.3 4.2 5.7.3 0 .5.1.8.1 2.4 0 4.6-1.8 4.9-4.3l4.6-30.7 32.7-22.9-.5 24c0 2 1.1 3.8 2.9 4.6.7.3 1.4.5 2.1.5 1.2 0 2.4-.4 3.3-1.2l16.2-14.2 2.2 44.1-19.1 22.1c-1.8 2.1-1.6 5.2.5 7.1.9.8 2.1 1.2 3.3 1.2 1.4 0 2.8-.6 3.8-1.7l12.3-14.2.9 17.9c.1 2.7 2.3 4.7 5 4.7h.3c2.8-.1 4.9-2.5 4.7-5.2l-1.1-21 17.4 15.2c.9.8 2.1 1.2 3.3 1.2 1.4 0 2.8-.6 3.8-1.7 1.8-2.1 1.6-5.2-.5-7.1l-24.6-21.5s-.1 0-.1-.1l-2.2-44.2 21.8 13.2c1.7 1 3.8 1 5.5-.2 1.6-1.1 2.4-3.1 2-5.1l-5-25 40.6 17 12.5 30.1c.8 1.9 2.7 3.1 4.6 3.1.6 0 1.3-.1 1.9-.4 2.6-1.1 3.8-4 2.7-6.5l-8.6-20.8 19.3 8.1c.6.3 1.3.4 1.9.4 2 0 3.8-1.2 4.6-3.1 1-2.5-.2-5.5-2.7-6.5zm-66.5-43.3l-15.8 8.7-15.5-6.5 12.3-8.7 19 6.5zm-23.8-34l-.4 19.1-12.8 9-.8-15.8 14-12.3zm-41.4 3.7l17.5 10.5.8 15.4-14.3-6-4-19.9zm-17.5 37.6l16.3-9L188 200l-12.8 9-18.1-6.2zm23.9 34l.4-20 12.3-8.7.9 16.8-13.6 11.9zm41.3-3.6l-17.9-10.8-.8-15.8 14.6 6.1 4.1 20.5z" fill="rgba(221, 221, 221, 0.3)" stroke="none"/>
</svg>
</g></svg></g></g>
<!-- /image 60278 -->

<!-- image 07672 -->
<g id="transformed-07672" data-image="07672" transform="translate(45.77475368818014, 135.98475368818015) rotate(23, 169.40524631181987, 169.40524631181984)"><g><svg version="1.1" width="338.81049262363973px" height="338.8104926236397px" viewBox="0 0 338.81049262363973 338.8104926236397"><g id="original-07672"><svg xmlns="http://www.w3.org/2000/svg" viewBox="0 0 400 400" xmlns:xlink="http://www.w3.org/1999/xlink" version="1.1" preserveAspectRatio="xMidYMid meet">
  <path d="M284.5 204.2h12.4c2.8 0 5-2.2 5-5s-2.2-5-5-5h-13.8l17.4-18.9c1.9-2 1.8-5.2-.3-7.1-2-1.9-5.2-1.8-7.1.3l-23.7 25.7H245l9.8-9.8c2-1.9 2-5.1 0-7.1-1.9-2-5.1-2-7.1 0l-16.5 16.4c-.4.1-.7.3-1.1.5H211l42.4-42.4 34.9 1.4h.2c2.7 0 4.9-2.1 5-4.8.1-2.8-2-5.1-4.8-5.2l-25.7-1 9.7-9.7c2-2 2-5.1 0-7.1s-5.1-2-7.1 0l-8.7 8.7-.9-23.6c-.1-2.8-2.4-4.9-5.2-4.8-2.8.1-4.9 2.4-4.8 5.2l1.3 32.8-44.1 44.1v-21l16.1-16c2-1.9 2-5.1 0-7.1-1.9-2-5.1-2-7.1 0l-9 9V129l24.9-23c2-1.9 2.2-5 .3-7.1-1.9-2-5-2.2-7.1-.3l-18.1 16.7v-14.7c0-2.8-2.2-5-5-5s-5 2.2-5 5v14.7l-18.1-16.7c-2-1.9-5.2-1.8-7.1.3-1.9 2-1.8 5.2.3 7.1l24.9 23v22l-8.1-8.1c-2-1.9-5.1-1.9-7.1 0-1.9 2-1.9 5.1 0 7.1l15.2 15.1v22.2l-40.5-40.5 1.4-34.9c.1-2.8-2-5.1-4.8-5.2-2.8-.1-5.1 2-5.2 4.8l-1 25.7-11.6-11.6c-2-2-5.1-2-7.1 0s-2 5.1 0 7.1l10.6 10.6-23.6.9c-2.8.1-4.9 2.4-4.8 5.2.1 2.7 2.3 4.8 5 4.8h.2l32.8-1.3 41.3 41.3h-18.6c-.1-.1-.1-.2-.2-.3-.6-.6-1.3-1-2-1.2l-15.5-15.4c-2-1.9-5.1-1.9-7.1 0-1.9 2-1.9 5.1 0 7.1l9.8 9.8h-22.8l-23.7-25.7c-1.9-2-5-2.2-7.1-.3-2 1.9-2.2 5-.3 7.1l17.4 18.9H99.9c-2.8 0-5 2.2-5 5s2.2 5 5 5h15l-16 17.3c-1.9 2-1.8 5.2.3 7.1 1 .9 2.2 1.3 3.4 1.3 1.3 0 2.7-.5 3.7-1.6l22.3-24.1h21.5l-8.1 8c-2 1.9-2 5.1 0 7.1 1 1 2.3 1.5 3.5 1.5 1.3 0 2.6-.5 3.5-1.5l15.2-15.1H187l-40.3 40.3-32.8-1.3c-2.8-.1-5.1 2-5.2 4.8-.1 2.8 2 5.1 4.8 5.2l23.6.9-10.6 10.6c-2 2-2 5.1 0 7.1 1 1 2.3 1.5 3.5 1.5 1.3 0 2.6-.5 3.5-1.5l11.6-11.6 1 25.7c.1 2.7 2.3 4.8 5 4.8h.2c2.8-.1 4.9-2.4 4.8-5.2l-1.4-34.9 38.5-38.5v19.5L177 247.7c-2 1.9-2 5.1 0 7.1 1 1 2.3 1.5 3.5 1.5 1.3 0 2.6-.5 3.5-1.5l9.1-9.1v24.6l-24.9 23c-2 1.9-2.2 5-.3 7.1 1.9 2 5 2.2 7.1.3l18.1-16.7v13.8c0 2.8 2.2 5 5 5s5-2.2 5-5V284l18.1 16.7c1 .9 2.2 1.3 3.4 1.3 1.3 0 2.7-.5 3.7-1.6 1.9-2 1.8-5.2-.3-7.1l-24.9-23v-24.6l9.1 9.1c1 1 2.3 1.5 3.5 1.5 1.3 0 2.6-.5 3.5-1.5 1.9-2 1.9-5.1 0-7.1L203 231.6v-20.1l42.2 42.2-1.3 32.8c-.1 2.8 2 5.1 4.8 5.2h.2c2.7 0 4.9-2.1 5-4.8l.9-23.6 8.7 8.7c1 1 2.3 1.5 3.5 1.5 1.3 0 2.6-.5 3.5-1.5 2-2 2-5.1 0-7.1l-9.7-9.7 25.7-1c2.8-.1 4.9-2.4 4.8-5.2-.1-2.8-2.4-4.9-5.2-4.8l-34.9 1.4-41.4-41.4h21.4l16.2 16.1c1 1 2.3 1.5 3.5 1.5 1.3 0 2.6-.5 3.5-1.5 1.9-2 1.9-5.1 0-7.1l-9.1-9h25.1l22.3 24.1c1 1.1 2.3 1.6 3.7 1.6 1.2 0 2.4-.4 3.4-1.3 2-1.9 2.2-5 .3-7.1l-15.6-17.3z" fill="rgba(221, 221, 221, 0.1)" stroke="none"/>
</svg>
</g></svg></g></g>
<!-- /image 07672 -->

<!-- image 64844 -->
<g id="transformed-64844" data-image="64844" transform="translate(391.51574107445583, -151.90425892554416) rotate(355, 229.53425892554415, 229.53425892554415)"><g><svg version="1.1" width="459.0685178510883px" height="459.0685178510883px" viewBox="0 0 459.0685178510883 459.0685178510883"><g id="original-64844"><svg xmlns="http://www.w3.org/2000/svg" viewBox="0 0 400 400" xmlns:xlink="http://www.w3.org/1999/xlink" version="1.1" preserveAspectRatio="xMidYMid meet">
  <path d="M285 204.4h12.4c2.8 0 5-2.2 5-5s-2.2-5-5-5h-13.8l17.4-18.9c1.9-2 1.8-5.2-.3-7.1-2-1.9-5.2-1.8-7.1.3l-23.7 25.7h-24l34.1-32.5c1.4-1.4 1.9-3.5 1.2-5.3-.7-1.9-2.4-3.2-4.4-3.3l-29.4-2.1-.9-28.3c-.1-2-1.3-3.7-3.1-4.5-1.8-.7-3.9-.3-5.4 1.1l-34.3 33.6v-23.9l24.9-23c2-1.9 2.2-5 .3-7.1-1.9-2-5-2.2-7.1-.3l-18.1 16.7v-14.7c0-2.8-2.2-5-5-5s-5 2.2-5 5v14.7l-18.1-16.7c-2-1.9-5.2-1.8-7.1.3-1.9 2-1.8 5.2.3 7.1l24.9 23v22.7L161.5 118c-1.4-1.4-3.4-1.9-5.3-1.3-1.9.7-3.2 2.4-3.3 4.4l-2.1 29.4-28.3.9c-2 .1-3.7 1.3-4.5 3.1-.7 1.8-.3 3.9 1.1 5.4l33.9 34.6h-22.7l-23.7-25.7c-1.9-2-5-2.2-7.1-.3-2 1.9-2.2 5-.3 7.1l17.4 18.9h-16.4c-2.8 0-5 2.2-5 5s2.2 5 5 5h15l-16 17.3c-1.9 2-1.8 5.2.3 7.1 1 .9 2.2 1.3 3.4 1.3 1.3 0 2.7-.5 3.7-1.6l22.3-24.1h22.3l-33.5 32c-1.4 1.4-1.9 3.5-1.2 5.3.7 1.9 2.4 3.2 4.4 3.3l29.4 2.1.9 28.3c.1 2 1.3 3.7 3.1 4.5.6.2 1.2.4 1.9.4 1.3 0 2.6-.5 3.5-1.4l34.3-33.6v25.3l-24.9 23c-2 1.9-2.2 5-.3 7.1 1.9 2 5 2.2 7.1.3l18.1-16.7v13.8c0 2.8 2.2 5 5 5s5-2.2 5-5v-13.8l18.1 16.7c1 .9 2.2 1.3 3.4 1.3 1.3 0 2.7-.5 3.7-1.6 1.9-2 1.8-5.2-.3-7.1l-24.9-23v-23.9l32.1 33.6c1 1 2.3 1.5 3.6 1.5.6 0 1.1-.1 1.7-.3 1.9-.7 3.2-2.4 3.3-4.4l2.1-29.4 28.3-.9c2-.1 3.7-1.3 4.5-3.1.7-1.8.3-3.9-1.1-5.4l-33.3-34h26.3l22.3 24.1c1 1.1 2.3 1.6 3.7 1.6 1.2 0 2.4-.4 3.4-1.3 2-1.9 2.2-5 .3-7.1L285 204.4zM237.5 153c-.3.2-.7.4-.9.7l-13.5 13.7c-1.9 2-1.9 5.1.1 7.1 1 1 2.2 1.4 3.5 1.4 1.3 0 2.6-.5 3.6-1.5l13.3-13.6 21.3 1.5-33.5 32h-27.6V167l33.1-32.5.6 18.5zm-83.8 7.4l15.4 15.1c1 1 2.2 1.4 3.5 1.4 1.3 0 2.6-.5 3.6-1.5 1.9-2 1.9-5.1-.1-7.1l-15.4-15.1 1.4-20.1 31.8 33.3v28.1H167L134.2 161l19.5-.6zm6.4 83.9c.1-.1.2-.2.4-.3l15.6-15.8c1.9-2 1.9-5.1-.1-7.1-2-1.9-5.1-1.9-7.1.1L153.3 237l-.2.2-20.4-1.4 32.9-31.4h28.2v26.7l-33.1 32.5-.6-19.3zm84.1-6.5c-.2-.2-.3-.4-.5-.6l-13.9-13.7c-2-1.9-5.1-1.9-7.1.1-1.9 2-1.9 5.1.1 7.1l13.9 13.7.2.2-1.5 20.7-31.6-33v-27.7H231l32.2 32.8-19 .4z" fill="rgba(221, 221, 221, 0.2)" stroke="none"/>
</svg>
</g></svg></g></g>
<!-- /background color -->
</defs><rect x="0" y="0" width="800" height="694" fill="rgba(222, 185, 218, 1)"></rect><use xlink:href="#transformed-40199" transform="translate(-800, -694)"></use><use xlink:href="#transformed-40199" transform="translate(0, -694)"></use><use xlink:href="#transformed-40199" transform="translate(800, -694)"></use><use xlink:href="#transformed-40199" transform="translate(-800, 0)"></use><use xlink:href="#transformed-40199" transform="translate(0, 0)"></use><use xlink:href="#transformed-40199" transform="translate(800, 0)"></use><use xlink:href="#transformed-40199" transform="translate(-800, 694)"></use><use xlink:href="#transformed-40199" transform="translate(0, 694)"></use><use xlink:href="#transformed-40199" transform="translate(800, 694)"></use><use xlink:href="#transformed-30882" transform="translate(-800, -694)"></use><use xlink:href="#transformed-30882" transform="translate(0, -694)"></use><use xlink:href="#transformed-30882" transform="translate(800, -694)"></use><use xlink:href="#transformed-30882" transform="translate(-800, 0)"></use><use xlink:href="#transformed-30882" transform="translate(0, 0)"></use><use xlink:href="#transformed-30882" transform="translate(800, 0)"></use><use xlink:href="#transformed-30882" transform="translate(-800, 694)"></use><use xlink:href="#transformed-30882" transform="translate(0, 694)"></use><use xlink:href="#transformed-30882" transform="translate(800, 694)"></use><use xlink:href="#transformed-45096" transform="translate(-800, -694)"></use><use xlink:href="#transformed-45096" transform="translate(0, -694)"></use><use xlink:href="#transformed-45096" transform="translate(800, -694)"></use><use xlink:href="#transformed-45096" transform="translate(-800, 0)"></use><use xlink:href="#transformed-45096" transform="translate(0, 0)"></use><use xlink:href="#transformed-45096" transform="translate(800, 0)"></use><use xlink:href="#transformed-45096" transform="translate(-800, 694)"></use><use xlink:href="#transformed-45096" transform="translate(0, 694)"></use><use xlink:href="#transformed-45096" transform="translate(800, 694)"></use><use xlink:href="#transformed-60278" transform="translate(-800, -694)"></use><use xlink:href="#transformed-60278" transform="translate(0, -694)"></use><use xlink:href="#transformed-60278" transform="translate(800, -694)"></use><use xlink:href="#transformed-60278" transform="translate(-800, 0)"></use><use xlink:href="#transformed-60278" transform="translate(0, 0)"></use><use xlink:href="#transformed-60278" transform="translate(800, 0)"></use><use xlink:href="#transformed-60278" transform="translate(-800, 694)"></use><use xlink:href="#transformed-60278" transform="translate(0, 694)"></use><use xlink:href="#transformed-60278" transform="translate(800, 694)"></use><use xlink:href="#transformed-07672" transform="translate(-800, -694)"></use><use xlink:href="#transformed-07672" transform="translate(0, -694)"></use><use xlink:href="#transformed-07672" transform="translate(800, -694)"></use><use xlink:href="#transformed-07672" transform="translate(-800, 0)"></use><use xlink:href="#transformed-07672" transform="translate(0, 0)"></use><use xlink:href="#transformed-07672" transform="translate(800, 0)"></use><use xlink:href="#transformed-07672" transform="translate(-800, 694)"></use><use xlink:href="#transformed-07672" transform="translate(0, 694)"></use><use xlink:href="#transformed-07672" transform="translate(800, 694)"></use><use xlink:href="#transformed-64844" transform="translate(-800, -694)"></use><use xlink:href="#transformed-64844" transform="translate(0, -694)"></use><use xlink:href="#transformed-64844" transform="translate(800, -694)"></use><use xlink:href="#transformed-64844" transform="translate(-800, 0)"></use><use xlink:href="#transformed-64844" transform="translate(0, 0)"></use><use xlink:href="#transformed-64844" transform="translate(800, 0)"></use><use xlink:href="#transformed-64844" transform="translate(-800, 694)"></use><use xlink:href="#transformed-64844" transform="translate(0, 694)"></use><use xlink:href="#transformed-64844" transform="translate(800, 694)"></use></svg>